<svg id="logo" width="300" height="130" viewBox="0 0 700 250" xmlns="http://www.w3.org/2000/svg" fill="url(#logo-gradient)">
  <defs>
    <linearGradient id="logo-gradient" x1="0%" y1="0%" x2="100%" y2="0%">
      <stop offset="0%" stop-color="#ff00ad"></stop>
      <stop offset="1000%" stop-color="#1565c0"></stop>
    </linearGradient>
  </defs>
  <path d="M266.7 243a32 32 0 01-19.8-5.3 33.2 33.2 0 01-10-11.8 35.6 35.6 0 01-3.7-12.3l-.5-6.7c0-1.3.8-2.8 2.5-4.4 1.6-1.7 4-3.1 7.3-4.4a35.9 35.9 0 017.3-2c1.2-.1 2.2 0 3.2.3a25.7 25.7 0 00-1.3 20.6c1.2 3.3 3 6.1 5.4 8.4a13 13 0 009.3 3.4c5.2 0 9.3-1.5 12.3-4.5s5.3-6.7 6.9-11.1c1.5-4.4 2.5-9 3-14a157.8 157.8 0 00.4-24.2c0-4.6-.4-9.8-.9-15.5a67.3 67.3 0 01-15 17.3c-3 2.3-6 4.1-9 5.5-3 1.4-6 2-9 2-5 0-9-1.5-12.1-4.7-3.1-3.1-5.5-7.1-7.1-12-1.6-4.7-2.7-10-3.3-15.6a154.4 154.4 0 01-.4-28.5l1.3-14.8c.4-4.7 1-8.8 1.8-12.3.7-3.5 1.5-5.5 2.3-6a32 32 0 0114-4.6c4.5-.4 7.9.2 10.2 1.7a16 16 0 00-5 7.3 69.5 69.5 0 00-3 11.3 168.5 168.5 0 00-.9 47.2c.5 3.8 1.4 7 2.5 9.6 1.2 2.6 2.6 4 4.4 4 3.6 0 7-1.4 10-4a39 39 0 008.2-9.8 52.6 52.6 0 007.5-25.1v-2a1494.3 1494.3 0 00-1.9-22.4 204.6 204.6 0 01-.6-11.7c0-1.7 1.1-3.1 3.3-4.4A26.1 26.1 0 01301 84c2.3.1 3.4.8 3.4 2.1a5032.6 5032.6 0 011.4 87A127 127 0 01304 197a91.4 91.4 0 01-6.7 22.6c-3.1 6.8-7.2 12.4-12.2 16.8a27 27 0 01-18.3 6.6zm128.1-3a28 28 0 01-15.2-3.6 25.9 25.9 0 01-8.8-9c-2-3.6-3.4-7.4-4-11.4-.7-4-1-7.6-1-10.9 0-.8.4-2 1.3-3.6a24.6 24.6 0 0119.2-12 53.7 53.7 0 00-3 17.8c0 5.4 1.1 9.9 3.2 13.5 2.1 3.6 5.4 5.3 9.8 5.3 4.7 0 8.5-2 11.5-6 2.9-4 5.1-8.7 6.7-14.3 1.5-5.7 2.6-11.5 3.2-17.6.5-6.1.8-11.3.8-15.5v-7.1c-1 1.8-2.1 3.7-3.5 5.6a25.2 25.2 0 01-21.4 11c-3.4 0-6.9-.9-10.5-2.7a32 32 0 01-10-8.2 44 44 0 01-7.6-13.6c-2-5.5-2.9-11.9-2.9-19.2a74 74 0 014.2-26.7c2.7-7.1 6.1-12.8 10-17.1a36.8 36.8 0 0126-11.8 22 22 0 0117 6.8V85a19.3 19.3 0 0111.2-4.4h3.6l3 .5c1.1.2 2 .6 2.4 1.2a15036.8 15036.8 0 01-4.9 101.4c-.3 6.8-1.2 13.6-2.7 20.3-.7 3.6-1.7 6.9-3 10l2.2 1 4.3 1.1c1.4.4 2.9.5 4.3.5 3.3 0 6-1.2 8.3-3.6a30 30 0 005.8-9.6c1.5-3.9 2.8-8.3 3.8-13.1 1-5 1.6-9.8 2-14.6a292 292 0 001.1-24.5c.2-16-.1-29.4-1-40.3a49 49 0 00-4.6-21.2l5.5-3c1.6-1 3.9-1.4 7-1.4 4.4.1 7.5 1.2 9.3 3.1 1.7 2 2.8 5 3.1 8.8a261 261 0 011 37.4l-1.3 27.3c-.4 7.7-1 14.7-1.9 21a86.2 86.2 0 01-4.5 20.3c-2.2 6-5 11.1-8.2 15.4-2.9 3.4-6.5 6.2-10.8 8.5a28.6 28.6 0 01-13.6 3.4c-2.3 0-4.3-.7-6-2-1.7-1.4-3-3-4.2-5-1.2-1.8-2-3.7-2.7-5.8l-.2-.4c-.7 1.7-1.6 3.3-2.5 5a33.5 33.5 0 01-30.8 17.8zm-252-37.3c-1.4 0-2.1-.7-2.1-2.2v-75.7c-2.8-.1-5.3-2.3-7.6-6.3s-3.3-8.7-3.2-13.7c1.2-.3 2.4-.6 3.6-.7 1.2-.2 2.4-.4 3.5-.8l3.7-.7a2057.5 2057.5 0 011-59 424 424 0 01-13.5 1.4c-1-1-1.7-2-2.2-3.3a29.3 29.3 0 01-2-12c0-2.5.6-4.4 1.5-5.7a600.3 600.3 0 0012-2.2l7-1a49.7 49.7 0 0112.7-8.5c2.2-1 3.7-1 4.5 0 .8 1 1.4 3 1.7 6l12.7-.9a4744 4744 0 0031.5-1 276.9 276.9 0 0125.4.3c1.3.1 2.3 1 3 2.8.8 1.7 1 3.9.8 6.6-.3 2.7-1.1 5.5-2.6 8.6-1.5 3.1-3.7 6.1-6.6 9-4-.7-8-1.4-12.3-1.9a541 541 0 00-11.9-1.2 274.2 274.2 0 00-39.8 1c-.1 7.3-.3 15.8-.3 25.5l-.4 32 6.6-.5 6.6-.4 17-1c5.6-.3 10.5-.2 14.6.4a17 17 0 019.4 3.8c2.1 2 2.6 5 1.5 9.3l-3.5 11.7c-.3-.8-1.1-1.5-2.5-2a60.3 60.3 0 00-11.4-2.6c-5.7-.7-12-.8-18.8-.3-6.8.5-13.4 1.2-19.7 2.2a687 687 0 002.4 57.9l.7 9.5c.2 1.4 0 2.6-.5 3.4l-2.9 3.4a26.6 26.6 0 01-19.5 8.8zm195.6-19.5c-2.4 0-4.5-1.2-6.3-3.6a27.4 27.4 0 01-4.3-9.1 113.2 113.2 0 01-3.3-26.4c0-4.9.2-10.5.5-17a3762 3762 0 012.5-43.2l1.2-23.5a1314.4 1314.4 0 011.7-28c.1-3.5 0-5.6-.3-6.2 1-1.3 2.2-2.3 3.7-3l4.1-1.6c1.7-.5 3.3-1 5-1.3h4.6c1.3 0 2.7.2 4.1.4 1.5.2 2.7.6 3.7 1.1a410 410 0 01-1.7 20.3 5486.8 5486.8 0 00-5.3 52.2c-.9 9.6-1.6 19.3-2.3 29-.6 9.8-1 17.8-.8 23.9 0 6 .4 11 1 15 .7 3.9 1.6 7 2.7 9.3 1.2 2.2 2.6 4.4 4.4 6.5a32.7 32.7 0 01-10.5 4.4c-1.6.5-3 .8-4.4.8zm185.6-2.4h-.6c-3.2 0-6.3-.8-9.3-2.1a23.7 23.7 0 01-9.3-7.9 37.9 37.9 0 01-5.7-12.8c-1.3-5-1.7-10.7-1.2-17a58.5 58.5 0 0111.4-31.8A61.2 61.2 0 01528 91.7a53.7 53.7 0 0112.1-5.7c1.8-.5 3.3-.6 4.6-.5a5 5 0 013.5 2.2l1.2 1.7 1.2 2.6c.5 1 .9 2.2 1.2 3.5-3.9 1.8-7.6 3.8-11 6a48.1 48.1 0 00-16.8 19.2 62.9 62.9 0 00-4.9 16c-1.6 8-1.2 14.5 1.3 19.4 2.6 4.9 6 6.9 10.4 6 2.6-.7 5.1-2.3 7.6-4.6 2.1-2 4.3-4.8 6.7-8.8 2.4-3.9 4.6-9.2 6.7-16l2-23.1c.7-5.6 1.2-10 1.7-12.9l1.4-6.8a7 7 0 013-2.3 26.4 26.4 0 019.7-2.7l3 .1c.3.2.5 2.2.5 6s-.2 8.6-.4 14.4a3145.5 3145.5 0 01-1.7 38c-.3 6-.4 11.2-.5 15.7 0 4.5 0 7.3.4 8.4a11.2 11.2 0 003.5 5.5c.9.8 2 1.2 3.3 1.4a12.6 12.6 0 01-3.4 4.6l-1.7 1c-1.5.5-3.7.7-6.6.7-3 0-5.8-.9-8.6-2.7a19 19 0 01-4.8-9.2 64 64 0 01-1.3-9 40.4 40.4 0 01-7.7 11.5c-2.8 2.9-5.6 5-8.4 6.3a23.5 23.5 0 01-11.2 3.2zm-125.7-13c2.4-.2 4.7-1.1 6.8-3 1.8-1.4 3.6-3.8 5.5-7 1.9-3.3 3.4-8 4.5-14a22.7 22.7 0 014.9 6.9 59.7 59.7 0 00.5-10.7c0-4.4-.3-9.2-.8-14.3-.5-5.1-1.3-9.8-2.5-14-1.2-4.3-3-7.8-5.2-10.7-2.1-2.8-5-4.3-8.4-4.3-2.7 0-5.4 1.3-8 3.7a34.2 34.2 0 00-6.6 9.7 68.5 68.5 0 00-5.7 38.7c.3 3.4 1.2 6.5 2.4 9.3a20 20 0 004.7 7c2 1.8 4.6 2.7 7.9 2.7zm245-6.2c-.2 0-.4-.3-.5-.8l-.9-2.3a89 89 0 01-3-14.3c-.1-1.7 0-3.2.3-4.5a1655.7 1655.7 0 0029.3-24c4-3.2 7.3-6.2 10.3-9A306.8 306.8 0 00655.5 90c-5-3.3-10.6-7-16.8-10.8a11 11 0 01-.8-3.7 62.9 62.9 0 01.1-8.3c.2-1.5.5-2.8 1-4.1.3-1.2.7-2.2 1.3-3.2.6-1 1.4-1.8 2.3-2.5l5.5 4 6.3 4.8a1088.4 1088.4 0 0138 31.3c.7.5 1.1 1.6 1.3 3.5a51.7 51.7 0 01-1.2 12.5c-.5 2-1.1 3.4-1.8 4.2-3.2 3.8-7.1 8-11.7 12.5a412.6 412.6 0 01-35.8 31.4zm-181-89.8c-6.4 0-9.6-3.2-9.6-9.7 0-1.8.4-3.7 1.3-5.6a19 19 0 014-5.5 19.4 19.4 0 0114.5-6c1.1 0 2.4.1 3.9.4 1.4.2 2.8.7 4.1 1.4 1.3.8 2.4 1.9 3.3 3.3 1 1.5 1.4 3.4 1.4 5.6 0 2.5-.8 4.7-2.4 6.6-1.5 2-3.4 3.6-5.7 5a32.3 32.3 0 01-14.9 4.5zm0-5.3a21.4 21.4 0 0010.3-3.4 9.6 9.6 0 002.7-2.5c.5-.8.8-1.6.8-2.4 0-.8-.2-1.5-.7-2-.5-.6-1.5-1-3-1a30.8 30.8 0 00-8.3 2.6c-1.4.7-2.7 1.6-3.7 2.7-1 1-1.6 2.1-1.6 3.3 0 1.8 1.1 2.7 3.4 2.7zm-404.4-9c.8.6 1.5 1.4 2.1 2.4.6 1 1 2 1.3 3.2.5 1.3.9 2.6 1 4.1a39.7 39.7 0 010 8.3c-.1 1.3-.4 2.5-.7 3.7a708.7 708.7 0 00-29.3 19.5l-10.8 8a695 695 0 0039.6 33c.3 1.3.4 2.8.4 4.5a89 89 0 01-3.7 16.6c-.2.8-.4 1-.6.6a363.4 363.4 0 01-47.6-43.7c-.7-.8-1.2-2.2-1.7-4.2A39.7 39.7 0 016.8 101c0-1.9.4-3 1-3.5l7.2-6.2a3738.6 3738.6 0 0016-13.5l7.9-6a1036.9 1036.9 0 0113.3-10.3c2.2-1.6 4-3 5.7-4z"/>
</svg>
